<svg width="100" height="100" viewBox="0 0 100 100" fill="none" xmlns="http://www.w3.org/2000/svg">
<rect width="100" height="100" rx="50" fill="url(#paint0_linear_142_376)"/>
<path d="M71.816 48.704C71.816 53.824 70.856 58.112 68.936 61.568C67.0587 65.024 64.3493 67.6267 60.808 69.376C57.2667 71.1253 52.9787 72 47.944 72H35.208V26.304H49.288C53.896 26.304 57.8853 27.1573 61.256 28.864C64.6267 30.5707 67.2293 33.088 69.064 36.416C70.8987 39.7013 71.816 43.7973 71.816 48.704ZM65.736 48.896C65.736 44.8427 65.0533 41.5147 63.688 38.912C62.3653 36.3093 60.4027 34.3893 57.8 33.152C55.24 31.872 52.1253 31.232 48.456 31.232H40.968V67.072H47.176C53.3627 67.072 57.992 65.5573 61.064 62.528C64.1787 59.456 65.736 54.912 65.736 48.896Z" fill="white"/>
<defs>
<linearGradient id="paint0_linear_142_376" x1="50" y1="0" x2="27" y2="100" gradientUnits="userSpaceOnUse">
<stop stop-color="#572DFF"/>
<stop offset="1" stop-color="#341B99"/>
</linearGradient>
</defs>
</svg>
